<mxfile host="app.diagrams.net" agent="Mozilla/5.0 (Windows NT 10.0; Win64; x64) AppleWebKit/537.36 (KHTML, like Gecko) Chrome/134.0.0.0 Safari/537.36" version="26.1.1">
  <diagram name="Page-1" id="lCzRvJo0Kv2IGKbyldjI">
    <mxGraphModel dx="1517" dy="993" grid="1" gridSize="10" guides="1" tooltips="1" connect="1" arrows="1" fold="1" page="1" pageScale="1" pageWidth="827" pageHeight="1169" math="0" shadow="0">
      <root>
        <mxCell id="0" />
        <mxCell id="1" parent="0" />
        <mxCell id="YmEk8_j5nTnuMvlyCTo2-1" value="CLIENT_NUM" style="whiteSpace=wrap;html=1;align=center;fontSize=8;" parent="1" vertex="1">
          <mxGeometry x="340" y="160" width="110" height="40" as="geometry" />
        </mxCell>
        <mxCell id="92U9s_R2SP-q4T7SexBG-25" style="edgeStyle=none;curved=0;rounded=0;orthogonalLoop=1;jettySize=auto;html=1;fontSize=12;startSize=8;endSize=8;endArrow=none;startFill=0;entryX=0.5;entryY=0;entryDx=0;entryDy=0;" edge="1" parent="1" target="YmEk8_j5nTnuMvlyCTo2-6">
          <mxGeometry relative="1" as="geometry">
            <mxPoint x="290" y="150" as="targetPoint" />
            <mxPoint x="170" y="120" as="sourcePoint" />
            <Array as="points">
              <mxPoint x="285" y="120" />
            </Array>
          </mxGeometry>
        </mxCell>
        <mxCell id="YmEk8_j5nTnuMvlyCTo2-2" value="CLIENT_NAME" style="whiteSpace=wrap;html=1;align=center;fontSize=8;" parent="1" vertex="1">
          <mxGeometry x="450" y="160" width="110" height="40" as="geometry" />
        </mxCell>
        <mxCell id="92U9s_R2SP-q4T7SexBG-24" style="edgeStyle=none;curved=1;rounded=0;orthogonalLoop=1;jettySize=auto;html=1;exitX=0.5;exitY=0;exitDx=0;exitDy=0;fontSize=12;startSize=8;endSize=8;entryX=0.5;entryY=0;entryDx=0;entryDy=0;" edge="1" parent="1" target="YmEk8_j5nTnuMvlyCTo2-1">
          <mxGeometry relative="1" as="geometry">
            <mxPoint x="395" y="150" as="targetPoint" />
            <mxPoint x="394.57142857142867" y="100.00000000000011" as="sourcePoint" />
          </mxGeometry>
        </mxCell>
        <mxCell id="YmEk8_j5nTnuMvlyCTo2-3" value="CLIENT_REGION" style="whiteSpace=wrap;html=1;align=center;fontSize=8;" parent="1" vertex="1">
          <mxGeometry x="560" y="160" width="110" height="40" as="geometry" />
        </mxCell>
        <mxCell id="92U9s_R2SP-q4T7SexBG-23" style="edgeStyle=none;curved=1;rounded=0;orthogonalLoop=1;jettySize=auto;html=1;exitX=0.5;exitY=0;exitDx=0;exitDy=0;fontSize=12;startSize=8;endSize=8;entryX=0.5;entryY=0;entryDx=0;entryDy=0;" edge="1" parent="1" target="YmEk8_j5nTnuMvlyCTo2-2">
          <mxGeometry relative="1" as="geometry">
            <mxPoint x="505" y="150" as="targetPoint" />
            <mxPoint x="504.57142857142867" y="100.00000000000011" as="sourcePoint" />
          </mxGeometry>
        </mxCell>
        <mxCell id="YmEk8_j5nTnuMvlyCTo2-4" value="CONTRACT_DATE" style="whiteSpace=wrap;html=1;align=center;fontSize=8;fillColor=#1ba1e2;fontColor=#ffffff;strokeColor=#006EAF;" parent="1" vertex="1">
          <mxGeometry x="120" y="160" width="110" height="40" as="geometry" />
        </mxCell>
        <mxCell id="YmEk8_j5nTnuMvlyCTo2-5" value="CONTRACT_NUMBER" style="whiteSpace=wrap;html=1;align=center;fontSize=8;fillColor=#1ba1e2;fontColor=#ffffff;strokeColor=#006EAF;" parent="1" vertex="1">
          <mxGeometry x="10" y="160" width="110" height="40" as="geometry" />
        </mxCell>
        <mxCell id="92U9s_R2SP-q4T7SexBG-22" style="edgeStyle=none;curved=1;rounded=0;orthogonalLoop=1;jettySize=auto;html=1;fontSize=12;startSize=8;endSize=8;entryX=0.5;entryY=0;entryDx=0;entryDy=0;" edge="1" parent="1" target="YmEk8_j5nTnuMvlyCTo2-3">
          <mxGeometry relative="1" as="geometry">
            <mxPoint x="630" y="150" as="targetPoint" />
            <mxPoint x="615" y="100.00000000000011" as="sourcePoint" />
          </mxGeometry>
        </mxCell>
        <mxCell id="YmEk8_j5nTnuMvlyCTo2-6" value="CONTRACT_AMOUNT" style="whiteSpace=wrap;html=1;align=center;fontSize=8;fillColor=#1ba1e2;fontColor=#ffffff;strokeColor=#006EAF;" parent="1" vertex="1">
          <mxGeometry x="230" y="160" width="110" height="40" as="geometry" />
        </mxCell>
        <mxCell id="92U9s_R2SP-q4T7SexBG-20" style="edgeStyle=none;curved=1;rounded=0;orthogonalLoop=1;jettySize=auto;html=1;exitX=0.5;exitY=0;exitDx=0;exitDy=0;fontSize=12;startSize=8;endSize=8;entryX=0.5;entryY=0;entryDx=0;entryDy=0;" edge="1" parent="1" target="YmEk8_j5nTnuMvlyCTo2-7">
          <mxGeometry relative="1" as="geometry">
            <mxPoint x="724.5714285714287" y="100.00000000000011" as="sourcePoint" />
          </mxGeometry>
        </mxCell>
        <mxCell id="YmEk8_j5nTnuMvlyCTo2-7" value="CONSULT_CLASS_1" style="whiteSpace=wrap;html=1;align=center;fontSize=8;" parent="1" vertex="1">
          <mxGeometry x="670" y="160" width="110" height="40" as="geometry" />
        </mxCell>
        <mxCell id="92U9s_R2SP-q4T7SexBG-19" style="edgeStyle=none;curved=1;rounded=0;orthogonalLoop=1;jettySize=auto;html=1;exitX=0.5;exitY=0;exitDx=0;exitDy=0;fontSize=12;startSize=8;endSize=8;entryX=0.5;entryY=0;entryDx=0;entryDy=0;" edge="1" parent="1" target="YmEk8_j5nTnuMvlyCTo2-8">
          <mxGeometry relative="1" as="geometry">
            <mxPoint x="834.5714285714287" y="100.00000000000011" as="sourcePoint" />
          </mxGeometry>
        </mxCell>
        <mxCell id="YmEk8_j5nTnuMvlyCTo2-8" value="CONSULT_CLASS_2" style="whiteSpace=wrap;html=1;align=center;fontSize=8;" parent="1" vertex="1">
          <mxGeometry x="780" y="160" width="110" height="40" as="geometry" />
        </mxCell>
        <mxCell id="92U9s_R2SP-q4T7SexBG-18" style="edgeStyle=none;curved=1;rounded=0;orthogonalLoop=1;jettySize=auto;html=1;fontSize=12;startSize=8;endSize=8;entryX=0.5;entryY=0;entryDx=0;entryDy=0;" edge="1" parent="1" target="YmEk8_j5nTnuMvlyCTo2-9">
          <mxGeometry relative="1" as="geometry">
            <mxPoint x="945" y="100" as="sourcePoint" />
          </mxGeometry>
        </mxCell>
        <mxCell id="YmEk8_j5nTnuMvlyCTo2-9" value="CONSULT_CLASS_3" style="whiteSpace=wrap;html=1;align=center;fontSize=8;" parent="1" vertex="1">
          <mxGeometry x="890" y="160" width="110" height="40" as="geometry" />
        </mxCell>
        <mxCell id="92U9s_R2SP-q4T7SexBG-17" style="edgeStyle=none;curved=1;rounded=0;orthogonalLoop=1;jettySize=auto;html=1;exitX=0.5;exitY=0;exitDx=0;exitDy=0;fontSize=12;startSize=8;endSize=8;entryX=0.5;entryY=0;entryDx=0;entryDy=0;" edge="1" parent="1" target="YmEk8_j5nTnuMvlyCTo2-10">
          <mxGeometry relative="1" as="geometry">
            <mxPoint x="1054.5714285714287" y="100.00000000000011" as="sourcePoint" />
          </mxGeometry>
        </mxCell>
        <mxCell id="YmEk8_j5nTnuMvlyCTo2-10" value="CONSULT_CLASS_4" style="whiteSpace=wrap;html=1;align=center;fontSize=8;" parent="1" vertex="1">
          <mxGeometry x="1000" y="160" width="110" height="40" as="geometry" />
        </mxCell>
        <mxCell id="92U9s_R2SP-q4T7SexBG-16" style="edgeStyle=none;curved=1;rounded=0;orthogonalLoop=1;jettySize=auto;html=1;fontSize=12;startSize=8;endSize=8;" edge="1" parent="1" target="YmEk8_j5nTnuMvlyCTo2-11">
          <mxGeometry relative="1" as="geometry">
            <mxPoint x="1165" y="100.00000000000011" as="sourcePoint" />
          </mxGeometry>
        </mxCell>
        <mxCell id="YmEk8_j5nTnuMvlyCTo2-11" value="CONSULTANT_NUM_1" style="whiteSpace=wrap;html=1;align=center;fontSize=8;" parent="1" vertex="1">
          <mxGeometry x="1110" y="160" width="110" height="40" as="geometry" />
        </mxCell>
        <mxCell id="92U9s_R2SP-q4T7SexBG-15" style="edgeStyle=none;curved=1;rounded=0;orthogonalLoop=1;jettySize=auto;html=1;exitX=0.5;exitY=0;exitDx=0;exitDy=0;fontSize=12;startSize=8;endSize=8;entryX=0.5;entryY=0;entryDx=0;entryDy=0;" edge="1" parent="1" target="YmEk8_j5nTnuMvlyCTo2-12">
          <mxGeometry relative="1" as="geometry">
            <mxPoint x="1274.5714285714287" y="100.00000000000011" as="sourcePoint" />
          </mxGeometry>
        </mxCell>
        <mxCell id="YmEk8_j5nTnuMvlyCTo2-12" value="CONSULTANT_NAME_1" style="whiteSpace=wrap;html=1;align=center;fontSize=8;" parent="1" vertex="1">
          <mxGeometry x="1220" y="160" width="110" height="40" as="geometry" />
        </mxCell>
        <mxCell id="92U9s_R2SP-q4T7SexBG-14" style="edgeStyle=none;curved=1;rounded=0;orthogonalLoop=1;jettySize=auto;html=1;exitX=0.5;exitY=0;exitDx=0;exitDy=0;fontSize=12;startSize=8;endSize=8;entryX=0.5;entryY=0;entryDx=0;entryDy=0;" edge="1" parent="1" target="YmEk8_j5nTnuMvlyCTo2-13">
          <mxGeometry relative="1" as="geometry">
            <mxPoint x="1384.5714285714287" y="100.00000000000011" as="sourcePoint" />
          </mxGeometry>
        </mxCell>
        <mxCell id="YmEk8_j5nTnuMvlyCTo2-13" value="CONSULTANT_REGION_1" style="whiteSpace=wrap;html=1;align=center;fontSize=8;" parent="1" vertex="1">
          <mxGeometry x="1330" y="160" width="110" height="40" as="geometry" />
        </mxCell>
        <mxCell id="92U9s_R2SP-q4T7SexBG-13" style="edgeStyle=none;curved=1;rounded=0;orthogonalLoop=1;jettySize=auto;html=1;exitX=0.5;exitY=0;exitDx=0;exitDy=0;fontSize=12;startSize=8;endSize=8;entryX=0.5;entryY=0;entryDx=0;entryDy=0;" edge="1" parent="1" target="YmEk8_j5nTnuMvlyCTo2-17">
          <mxGeometry relative="1" as="geometry">
            <mxPoint x="1494.571428571429" y="100.00000000000011" as="sourcePoint" />
          </mxGeometry>
        </mxCell>
        <mxCell id="YmEk8_j5nTnuMvlyCTo2-17" value="CONSULTANT_NUM_2" style="whiteSpace=wrap;html=1;align=center;fontSize=8;" parent="1" vertex="1">
          <mxGeometry x="1440" y="160" width="110" height="40" as="geometry" />
        </mxCell>
        <mxCell id="92U9s_R2SP-q4T7SexBG-12" style="edgeStyle=none;curved=1;rounded=0;orthogonalLoop=1;jettySize=auto;html=1;exitX=0.5;exitY=0;exitDx=0;exitDy=0;fontSize=12;startSize=8;endSize=8;entryX=0.5;entryY=0;entryDx=0;entryDy=0;" edge="1" parent="1" target="YmEk8_j5nTnuMvlyCTo2-18">
          <mxGeometry relative="1" as="geometry">
            <mxPoint x="1604.571428571429" y="100.00000000000011" as="sourcePoint" />
          </mxGeometry>
        </mxCell>
        <mxCell id="YmEk8_j5nTnuMvlyCTo2-18" value="CONSULTANT_NAME_2" style="whiteSpace=wrap;html=1;align=center;fontSize=8;" parent="1" vertex="1">
          <mxGeometry x="1550" y="160" width="110" height="40" as="geometry" />
        </mxCell>
        <mxCell id="92U9s_R2SP-q4T7SexBG-11" style="edgeStyle=none;curved=1;rounded=0;orthogonalLoop=1;jettySize=auto;html=1;exitX=0.5;exitY=0;exitDx=0;exitDy=0;fontSize=12;startSize=8;endSize=8;entryX=0.5;entryY=0;entryDx=0;entryDy=0;" edge="1" parent="1" target="YmEk8_j5nTnuMvlyCTo2-19">
          <mxGeometry relative="1" as="geometry">
            <mxPoint x="1714.571428571429" y="100.00000000000011" as="sourcePoint" />
          </mxGeometry>
        </mxCell>
        <mxCell id="YmEk8_j5nTnuMvlyCTo2-19" value="CONSULTANT_REGION_2" style="whiteSpace=wrap;html=1;align=center;fontSize=8;" parent="1" vertex="1">
          <mxGeometry x="1660" y="160" width="110" height="40" as="geometry" />
        </mxCell>
        <mxCell id="92U9s_R2SP-q4T7SexBG-10" style="edgeStyle=none;curved=1;rounded=0;orthogonalLoop=1;jettySize=auto;html=1;fontSize=12;startSize=8;endSize=8;" edge="1" parent="1" target="YmEk8_j5nTnuMvlyCTo2-20">
          <mxGeometry relative="1" as="geometry">
            <mxPoint x="1825" y="100.00000000000011" as="sourcePoint" />
          </mxGeometry>
        </mxCell>
        <mxCell id="YmEk8_j5nTnuMvlyCTo2-20" value="CONSULTANT_NUM_3" style="whiteSpace=wrap;html=1;align=center;fontSize=8;" parent="1" vertex="1">
          <mxGeometry x="1770" y="160" width="110" height="40" as="geometry" />
        </mxCell>
        <mxCell id="92U9s_R2SP-q4T7SexBG-9" style="edgeStyle=none;curved=1;rounded=0;orthogonalLoop=1;jettySize=auto;html=1;exitX=0.5;exitY=0;exitDx=0;exitDy=0;fontSize=12;startSize=8;endSize=8;entryX=0.5;entryY=0;entryDx=0;entryDy=0;" edge="1" parent="1" target="YmEk8_j5nTnuMvlyCTo2-21">
          <mxGeometry relative="1" as="geometry">
            <mxPoint x="1934.571428571429" y="100.00000000000011" as="sourcePoint" />
          </mxGeometry>
        </mxCell>
        <mxCell id="YmEk8_j5nTnuMvlyCTo2-21" value="CONSULTANT_NAME_3" style="whiteSpace=wrap;html=1;align=center;fontSize=8;" parent="1" vertex="1">
          <mxGeometry x="1880" y="160" width="110" height="40" as="geometry" />
        </mxCell>
        <mxCell id="92U9s_R2SP-q4T7SexBG-8" style="edgeStyle=none;curved=1;rounded=0;orthogonalLoop=1;jettySize=auto;html=1;fontSize=12;startSize=8;endSize=8;" edge="1" parent="1" target="YmEk8_j5nTnuMvlyCTo2-22">
          <mxGeometry relative="1" as="geometry">
            <mxPoint x="2045" y="100.00000000000011" as="sourcePoint" />
          </mxGeometry>
        </mxCell>
        <mxCell id="YmEk8_j5nTnuMvlyCTo2-22" value="CONSULTANT_REGION_3" style="whiteSpace=wrap;html=1;align=center;fontSize=8;" parent="1" vertex="1">
          <mxGeometry x="1990" y="160" width="110" height="40" as="geometry" />
        </mxCell>
        <mxCell id="92U9s_R2SP-q4T7SexBG-7" style="edgeStyle=none;curved=1;rounded=0;orthogonalLoop=1;jettySize=auto;html=1;fontSize=12;startSize=8;endSize=8;" edge="1" parent="1" target="YmEk8_j5nTnuMvlyCTo2-23">
          <mxGeometry relative="1" as="geometry">
            <mxPoint x="2155" y="100.00000000000011" as="sourcePoint" />
          </mxGeometry>
        </mxCell>
        <mxCell id="YmEk8_j5nTnuMvlyCTo2-23" value="CONSULTANT_NUM_4" style="whiteSpace=wrap;html=1;align=center;fontSize=8;" parent="1" vertex="1">
          <mxGeometry x="2100" y="160" width="110" height="40" as="geometry" />
        </mxCell>
        <mxCell id="92U9s_R2SP-q4T7SexBG-5" style="edgeStyle=none;curved=1;rounded=0;orthogonalLoop=1;jettySize=auto;html=1;exitX=0.5;exitY=0;exitDx=0;exitDy=0;fontSize=12;startSize=8;endSize=8;entryX=0.5;entryY=0;entryDx=0;entryDy=0;" edge="1" parent="1" target="YmEk8_j5nTnuMvlyCTo2-24">
          <mxGeometry relative="1" as="geometry">
            <mxPoint x="2264.571428571429" y="100.00000000000011" as="sourcePoint" />
          </mxGeometry>
        </mxCell>
        <mxCell id="YmEk8_j5nTnuMvlyCTo2-24" value="CONSULTANT_NAME_4" style="whiteSpace=wrap;html=1;align=center;fontSize=8;" parent="1" vertex="1">
          <mxGeometry x="2210" y="160" width="110" height="40" as="geometry" />
        </mxCell>
        <mxCell id="92U9s_R2SP-q4T7SexBG-4" style="edgeStyle=none;curved=1;rounded=0;orthogonalLoop=1;jettySize=auto;html=1;fontSize=12;startSize=8;endSize=8;" edge="1" parent="1" target="YmEk8_j5nTnuMvlyCTo2-25">
          <mxGeometry relative="1" as="geometry">
            <mxPoint x="2375" y="100" as="sourcePoint" />
          </mxGeometry>
        </mxCell>
        <mxCell id="YmEk8_j5nTnuMvlyCTo2-25" value="CONSULTANT_REGION_4" style="whiteSpace=wrap;html=1;align=center;fontSize=8;" parent="1" vertex="1">
          <mxGeometry x="2320" y="160" width="110" height="40" as="geometry" />
        </mxCell>
        <mxCell id="92U9s_R2SP-q4T7SexBG-2" value="" style="endArrow=none;html=1;rounded=0;fontSize=12;startSize=8;endSize=8;curved=0;startFill=0;entryX=0.5;entryY=0;entryDx=0;entryDy=0;exitX=0.5;exitY=0;exitDx=0;exitDy=0;" edge="1" parent="1" source="YmEk8_j5nTnuMvlyCTo2-5" target="YmEk8_j5nTnuMvlyCTo2-4">
          <mxGeometry width="50" height="50" relative="1" as="geometry">
            <mxPoint x="65" y="150" as="sourcePoint" />
            <mxPoint x="175" y="150" as="targetPoint" />
            <Array as="points">
              <mxPoint x="65" y="120" />
              <mxPoint x="175" y="120" />
            </Array>
          </mxGeometry>
        </mxCell>
        <mxCell id="92U9s_R2SP-q4T7SexBG-3" value="" style="endArrow=none;html=1;rounded=0;fontSize=12;startSize=8;endSize=8;curved=0;startFill=0;" edge="1" parent="1">
          <mxGeometry width="50" height="50" relative="1" as="geometry">
            <mxPoint x="180" y="120" as="sourcePoint" />
            <mxPoint x="2380" y="100" as="targetPoint" />
            <Array as="points">
              <mxPoint x="180" y="100" />
            </Array>
          </mxGeometry>
        </mxCell>
        <mxCell id="92U9s_R2SP-q4T7SexBG-27" value="" style="endArrow=classic;html=1;rounded=0;fontSize=12;startSize=8;endSize=8;curved=0;exitX=0.5;exitY=1;exitDx=0;exitDy=0;entryX=0.5;entryY=1;entryDx=0;entryDy=0;" edge="1" parent="1" source="YmEk8_j5nTnuMvlyCTo2-1" target="YmEk8_j5nTnuMvlyCTo2-2">
          <mxGeometry width="50" height="50" relative="1" as="geometry">
            <mxPoint x="450" y="320" as="sourcePoint" />
            <mxPoint x="500" y="270" as="targetPoint" />
            <Array as="points">
              <mxPoint x="395" y="220" />
              <mxPoint x="505" y="220" />
            </Array>
          </mxGeometry>
        </mxCell>
        <mxCell id="92U9s_R2SP-q4T7SexBG-42" value="T" style="edgeLabel;html=1;align=center;verticalAlign=middle;resizable=0;points=[];fontSize=12;" vertex="1" connectable="0" parent="92U9s_R2SP-q4T7SexBG-27">
          <mxGeometry x="0.0291" y="-3" relative="1" as="geometry">
            <mxPoint as="offset" />
          </mxGeometry>
        </mxCell>
        <mxCell id="92U9s_R2SP-q4T7SexBG-28" value="" style="endArrow=classic;html=1;rounded=0;fontSize=12;startSize=8;endSize=8;curved=0;entryX=0.5;entryY=1;entryDx=0;entryDy=0;" edge="1" parent="1" target="YmEk8_j5nTnuMvlyCTo2-3">
          <mxGeometry width="50" height="50" relative="1" as="geometry">
            <mxPoint x="500" y="220" as="sourcePoint" />
            <mxPoint x="600" y="250" as="targetPoint" />
            <Array as="points">
              <mxPoint x="615" y="220" />
            </Array>
          </mxGeometry>
        </mxCell>
        <mxCell id="92U9s_R2SP-q4T7SexBG-30" value="" style="endArrow=classic;html=1;rounded=0;fontSize=12;startSize=8;endSize=8;curved=0;exitX=0.5;exitY=1;exitDx=0;exitDy=0;entryX=0.5;entryY=1;entryDx=0;entryDy=0;" edge="1" parent="1" source="YmEk8_j5nTnuMvlyCTo2-11" target="YmEk8_j5nTnuMvlyCTo2-12">
          <mxGeometry width="50" height="50" relative="1" as="geometry">
            <mxPoint x="1210" y="310" as="sourcePoint" />
            <mxPoint x="1260" y="260" as="targetPoint" />
            <Array as="points">
              <mxPoint x="1165" y="230" />
              <mxPoint x="1275" y="230" />
            </Array>
          </mxGeometry>
        </mxCell>
        <mxCell id="92U9s_R2SP-q4T7SexBG-38" value="T" style="edgeLabel;html=1;align=center;verticalAlign=middle;resizable=0;points=[];fontSize=12;" vertex="1" connectable="0" parent="92U9s_R2SP-q4T7SexBG-30">
          <mxGeometry x="-0.0061" y="1" relative="1" as="geometry">
            <mxPoint as="offset" />
          </mxGeometry>
        </mxCell>
        <mxCell id="92U9s_R2SP-q4T7SexBG-31" value="" style="endArrow=classic;html=1;rounded=0;fontSize=12;startSize=8;endSize=8;curved=0;entryX=0.5;entryY=1;entryDx=0;entryDy=0;" edge="1" parent="1" target="YmEk8_j5nTnuMvlyCTo2-13">
          <mxGeometry width="50" height="50" relative="1" as="geometry">
            <mxPoint x="1270" y="230" as="sourcePoint" />
            <mxPoint x="1410" y="250" as="targetPoint" />
            <Array as="points">
              <mxPoint x="1385" y="230" />
            </Array>
          </mxGeometry>
        </mxCell>
        <mxCell id="92U9s_R2SP-q4T7SexBG-32" value="" style="endArrow=classic;html=1;rounded=0;fontSize=12;startSize=8;endSize=8;curved=0;exitX=0.5;exitY=1;exitDx=0;exitDy=0;entryX=0.5;entryY=1;entryDx=0;entryDy=0;" edge="1" parent="1">
          <mxGeometry width="50" height="50" relative="1" as="geometry">
            <mxPoint x="1495" y="200" as="sourcePoint" />
            <mxPoint x="1605" y="200" as="targetPoint" />
            <Array as="points">
              <mxPoint x="1495" y="230" />
              <mxPoint x="1605" y="230" />
            </Array>
          </mxGeometry>
        </mxCell>
        <mxCell id="92U9s_R2SP-q4T7SexBG-39" value="T" style="edgeLabel;html=1;align=center;verticalAlign=middle;resizable=0;points=[];fontSize=12;" vertex="1" connectable="0" parent="92U9s_R2SP-q4T7SexBG-32">
          <mxGeometry x="-0.051" y="1" relative="1" as="geometry">
            <mxPoint as="offset" />
          </mxGeometry>
        </mxCell>
        <mxCell id="92U9s_R2SP-q4T7SexBG-33" value="" style="endArrow=classic;html=1;rounded=0;fontSize=12;startSize=8;endSize=8;curved=0;entryX=0.5;entryY=1;entryDx=0;entryDy=0;" edge="1" parent="1">
          <mxGeometry width="50" height="50" relative="1" as="geometry">
            <mxPoint x="1600" y="230" as="sourcePoint" />
            <mxPoint x="1715" y="200" as="targetPoint" />
            <Array as="points">
              <mxPoint x="1715" y="230" />
            </Array>
          </mxGeometry>
        </mxCell>
        <mxCell id="92U9s_R2SP-q4T7SexBG-34" value="" style="endArrow=classic;html=1;rounded=0;fontSize=12;startSize=8;endSize=8;curved=0;exitX=0.5;exitY=1;exitDx=0;exitDy=0;entryX=0.5;entryY=1;entryDx=0;entryDy=0;" edge="1" parent="1">
          <mxGeometry width="50" height="50" relative="1" as="geometry">
            <mxPoint x="1825" y="200" as="sourcePoint" />
            <mxPoint x="1935" y="200" as="targetPoint" />
            <Array as="points">
              <mxPoint x="1825" y="230" />
              <mxPoint x="1935" y="230" />
            </Array>
          </mxGeometry>
        </mxCell>
        <mxCell id="92U9s_R2SP-q4T7SexBG-40" value="T" style="edgeLabel;html=1;align=center;verticalAlign=middle;resizable=0;points=[];fontSize=12;" vertex="1" connectable="0" parent="92U9s_R2SP-q4T7SexBG-34">
          <mxGeometry x="-0.0111" y="2" relative="1" as="geometry">
            <mxPoint as="offset" />
          </mxGeometry>
        </mxCell>
        <mxCell id="92U9s_R2SP-q4T7SexBG-35" value="" style="endArrow=classic;html=1;rounded=0;fontSize=12;startSize=8;endSize=8;curved=0;entryX=0.5;entryY=1;entryDx=0;entryDy=0;" edge="1" parent="1">
          <mxGeometry width="50" height="50" relative="1" as="geometry">
            <mxPoint x="1930" y="230" as="sourcePoint" />
            <mxPoint x="2045" y="200" as="targetPoint" />
            <Array as="points">
              <mxPoint x="2045" y="230" />
            </Array>
          </mxGeometry>
        </mxCell>
        <mxCell id="92U9s_R2SP-q4T7SexBG-36" value="" style="endArrow=classic;html=1;rounded=0;fontSize=12;startSize=8;endSize=8;curved=0;exitX=0.5;exitY=1;exitDx=0;exitDy=0;entryX=0.5;entryY=1;entryDx=0;entryDy=0;" edge="1" parent="1">
          <mxGeometry width="50" height="50" relative="1" as="geometry">
            <mxPoint x="2155" y="200" as="sourcePoint" />
            <mxPoint x="2265" y="200" as="targetPoint" />
            <Array as="points">
              <mxPoint x="2155" y="230" />
              <mxPoint x="2265" y="230" />
            </Array>
          </mxGeometry>
        </mxCell>
        <mxCell id="92U9s_R2SP-q4T7SexBG-41" value="T" style="edgeLabel;html=1;align=center;verticalAlign=middle;resizable=0;points=[];fontSize=12;" vertex="1" connectable="0" parent="92U9s_R2SP-q4T7SexBG-36">
          <mxGeometry x="-0.0182" relative="1" as="geometry">
            <mxPoint as="offset" />
          </mxGeometry>
        </mxCell>
        <mxCell id="92U9s_R2SP-q4T7SexBG-37" value="" style="endArrow=classic;html=1;rounded=0;fontSize=12;startSize=8;endSize=8;curved=0;entryX=0.5;entryY=1;entryDx=0;entryDy=0;" edge="1" parent="1">
          <mxGeometry width="50" height="50" relative="1" as="geometry">
            <mxPoint x="2260" y="230" as="sourcePoint" />
            <mxPoint x="2375" y="200" as="targetPoint" />
            <Array as="points">
              <mxPoint x="2375" y="230" />
            </Array>
          </mxGeometry>
        </mxCell>
        <mxCell id="92U9s_R2SP-q4T7SexBG-43" value="CLIENT_NUM" style="whiteSpace=wrap;html=1;align=center;fontSize=8;fillColor=#1ba1e2;fontColor=#ffffff;strokeColor=#006EAF;" vertex="1" parent="1">
          <mxGeometry x="10" y="400" width="110" height="40" as="geometry" />
        </mxCell>
        <mxCell id="92U9s_R2SP-q4T7SexBG-44" value="CLIENT_NAME" style="whiteSpace=wrap;html=1;align=center;fontSize=8;" vertex="1" parent="1">
          <mxGeometry x="120" y="400" width="110" height="40" as="geometry" />
        </mxCell>
        <mxCell id="92U9s_R2SP-q4T7SexBG-45" value="REGION_ID" style="whiteSpace=wrap;html=1;align=center;fontSize=8;" vertex="1" parent="1">
          <mxGeometry x="230" y="400" width="110" height="40" as="geometry" />
        </mxCell>
        <mxCell id="92U9s_R2SP-q4T7SexBG-49" value="&lt;b&gt;&lt;u&gt;2NF:&lt;/u&gt;&lt;/b&gt;" style="text;html=1;align=center;verticalAlign=middle;resizable=0;points=[];autosize=1;strokeColor=none;fillColor=none;fontSize=16;" vertex="1" parent="1">
          <mxGeometry y="281" width="60" height="30" as="geometry" />
        </mxCell>
        <mxCell id="92U9s_R2SP-q4T7SexBG-50" value="Databasis is alklaar in 2NF form omdat al die kolome gedeeltelik afhanklik is. So dus kan daar geen tabel gemaak word met die afhanklikke kolome nie en nog &#39;n ene met die oorblywende kolome, maar daar is geen oorblywende kolome nie." style="text;html=1;align=center;verticalAlign=middle;resizable=0;points=[];autosize=1;strokeColor=none;fillColor=none;fontSize=16;" vertex="1" parent="1">
          <mxGeometry x="50" y="281" width="1720" height="30" as="geometry" />
        </mxCell>
        <mxCell id="92U9s_R2SP-q4T7SexBG-51" value="&lt;b&gt;&lt;u&gt;3NF:&lt;/u&gt;&lt;/b&gt;" style="text;html=1;align=center;verticalAlign=middle;resizable=0;points=[];autosize=1;strokeColor=none;fillColor=none;fontSize=16;" vertex="1" parent="1">
          <mxGeometry y="360" width="60" height="30" as="geometry" />
        </mxCell>
        <mxCell id="92U9s_R2SP-q4T7SexBG-52" value="CONSULTANT_NUM" style="whiteSpace=wrap;html=1;align=center;fontSize=8;fillColor=#1ba1e2;fontColor=#ffffff;strokeColor=#006EAF;" vertex="1" parent="1">
          <mxGeometry x="400" y="400" width="110" height="40" as="geometry" />
        </mxCell>
        <mxCell id="92U9s_R2SP-q4T7SexBG-53" value="CONSULTANT_NAME" style="whiteSpace=wrap;html=1;align=center;fontSize=8;" vertex="1" parent="1">
          <mxGeometry x="510" y="400" width="110" height="40" as="geometry" />
        </mxCell>
        <mxCell id="92U9s_R2SP-q4T7SexBG-54" value="REGION_ID" style="whiteSpace=wrap;html=1;align=center;fontSize=8;" vertex="1" parent="1">
          <mxGeometry x="620" y="400" width="110" height="40" as="geometry" />
        </mxCell>
        <mxCell id="92U9s_R2SP-q4T7SexBG-58" value="CONTRACT_DATE" style="whiteSpace=wrap;html=1;align=center;fontSize=8;" vertex="1" parent="1">
          <mxGeometry x="120" y="520" width="110" height="40" as="geometry" />
        </mxCell>
        <mxCell id="92U9s_R2SP-q4T7SexBG-59" value="CONTRACT_NUMBER" style="whiteSpace=wrap;html=1;align=center;fontSize=8;fillColor=#1ba1e2;fontColor=#ffffff;strokeColor=#006EAF;" vertex="1" parent="1">
          <mxGeometry x="10" y="520" width="110" height="40" as="geometry" />
        </mxCell>
        <mxCell id="92U9s_R2SP-q4T7SexBG-60" value="CONTRACT_AMOUNT" style="whiteSpace=wrap;html=1;align=center;fontSize=8;" vertex="1" parent="1">
          <mxGeometry x="230" y="520" width="110" height="40" as="geometry" />
        </mxCell>
        <mxCell id="92U9s_R2SP-q4T7SexBG-61" value="CLASS_ID" style="whiteSpace=wrap;html=1;align=center;fontSize=8;fillColor=#1ba1e2;fontColor=#ffffff;strokeColor=#006EAF;" vertex="1" parent="1">
          <mxGeometry x="800" y="400" width="110" height="40" as="geometry" />
        </mxCell>
        <mxCell id="92U9s_R2SP-q4T7SexBG-62" value="CLASS_LEVEL" style="whiteSpace=wrap;html=1;align=center;fontSize=8;" vertex="1" parent="1">
          <mxGeometry x="910" y="400" width="110" height="40" as="geometry" />
        </mxCell>
        <mxCell id="92U9s_R2SP-q4T7SexBG-65" value="REGION_ID" style="whiteSpace=wrap;html=1;align=center;fontSize=8;fillColor=#1ba1e2;fontColor=#ffffff;strokeColor=#006EAF;" vertex="1" parent="1">
          <mxGeometry x="800" y="520" width="110" height="40" as="geometry" />
        </mxCell>
        <mxCell id="92U9s_R2SP-q4T7SexBG-66" value="REGION_NAME" style="whiteSpace=wrap;html=1;align=center;fontSize=8;" vertex="1" parent="1">
          <mxGeometry x="910" y="520" width="110" height="40" as="geometry" />
        </mxCell>
        <mxCell id="92U9s_R2SP-q4T7SexBG-67" value="CLIENT_NUM" style="whiteSpace=wrap;html=1;align=center;fontSize=8;" vertex="1" parent="1">
          <mxGeometry x="510" y="520" width="110" height="40" as="geometry" />
        </mxCell>
        <mxCell id="92U9s_R2SP-q4T7SexBG-68" value="CONSULTANT_NUM" style="whiteSpace=wrap;html=1;align=center;fontSize=8;" vertex="1" parent="1">
          <mxGeometry x="620" y="520" width="110" height="40" as="geometry" />
        </mxCell>
        <mxCell id="92U9s_R2SP-q4T7SexBG-69" value="CONTRACT_NUMBER" style="whiteSpace=wrap;html=1;align=center;fontSize=8;fillColor=#1ba1e2;fontColor=#ffffff;strokeColor=#006EAF;" vertex="1" parent="1">
          <mxGeometry x="400" y="520" width="110" height="40" as="geometry" />
        </mxCell>
      </root>
    </mxGraphModel>
  </diagram>
</mxfile>
